<svg width="24" height="24" viewBox="0 0 24 24" fill="none" xmlns="http://www.w3.org/2000/svg">
  <circle cx="12" cy="12" r="10" fill="#F7931A"/>
  <path d="M16.5 9.5C16.5 8.5 15.5 7.5 14.5 7.5H12V5H10V7.5H8.5V9H10V15H8.5V16.5H10V19H12V16.5H14.5C15.5 16.5 16.5 15.5 16.5 14.5C16.5 13.5 15.5 12.5 14.5 12.5C15.5 12.5 16.5 11.5 16.5 10.5C16.5 9.5 15.5 8.5 14.5 8.5C15.5 8.5 16.5 9.5 16.5 9.5Z" fill="white"/>
  <path d="M14.5 8.5C15.1 8.5 15.5 8.9 15.5 9.5C15.5 10.1 15.1 10.5 14.5 10.5H12V8.5H14.5Z" fill="white"/>
  <path d="M14.5 13.5C15.1 13.5 15.5 13.9 15.5 14.5C15.5 15.1 15.1 15.5 14.5 15.5H12V13.5H14.5Z" fill="white"/>
</svg>
